# xmcd
#
# Track frame offsets:
#	150
#	13520
#	27213
#	38992
#	51377
#	63052
#	72566
#	90342
#	101306
#	113540
#	123595
#	140934
#	154143
#	165525
#
# Disc length: 2437 seconds
#
# Revision: 1
# Processed by: cddbd v1.5.2PL0 Copyright (c) Steve Scherf et al.
# Submitted via: audiograbber 1.83.01
#
DISCID=b609830e
DTITLE=Kacey Musgraves - Wanted: One Good Cowboy
DYEAR=2003
DGENRE=Country
TTITLE0=Life of an Old Cowhand
TTITLE1=When It's Peach Pickin' Time In Texas
TTITLE2=If I Could Only Learn To Yodel
TTITLE3=Blue Rose of Texas
TTITLE4=Texas Smile
TTITLE5=Yodeler's Lament
TTITLE6=Wanted: One Good Cowboy
TTITLE7='Til There's Not a Cow in Texas
TTITLE8=Cowboys Are a Girl's Best Friend
TTITLE9=Texas Yodeler
TTITLE10=Before My Time
TTITLE11=Cherokee Maiden
TTITLE12=You're From Texas
TTITLE13=Wayfaring Stranger
EXTD=
EXTT0=
EXTT1=
EXTT2=
EXTT3=
EXTT4=
EXTT5=
EXTT6=
EXTT7=
EXTT8=
EXTT9=
EXTT10=
EXTT11=
EXTT12=
EXTT13=
PLAYORDER=
